# xmcd
#
# Track frame offsets:
#	150
#	17440
#	32442
#	49020
#	63348
#	80788
#	100253
#	119680
#	132132
#
# Disc length: 2017 seconds
#
# Revision: 0
# Processed by: cddbd v1.5.2PL0 Copyright (c) Steve Scherf et al.
# Submitted via: audiograbber 1.83.01
#
DISCID=6f07df09
DTITLE=Gary and Carol Bibb - Gary and Carol Bibb
DYEAR=2007
DGENRE=Country
TTITLE0=I'm gonna love you
TTITLE1=Don't drink and Drive
TTITLE2=Will you still love me
TTITLE3=Just to be with you
TTITLE4=Victory at last
TTITLE5=I'm gonna miss you
TTITLE6=Soldier's prayer
TTITLE7=Lovin You Lovin Me
TTITLE8=Holy Room
EXTD=
EXTT0=
EXTT1=
EXTT2=
EXTT3=
EXTT4=
EXTT5=
EXTT6=
EXTT7=
EXTT8=
PLAYORDER=
